<?xml version="1.0" standalone="no"?>
<!DOCTYPE svg PUBLIC "-//W3C//DTD SVG 20010904//EN"
 "http://www.w3.org/TR/2001/REC-SVG-20010904/DTD/svg10.dtd">
<svg version="1.0" xmlns="http://www.w3.org/2000/svg"
 width="500.000000pt" height="500.000000pt" viewBox="0 0 500.000000 500.000000"
 preserveAspectRatio="xMidYMid meet">
<metadata>
Created by potrace 1.16, written by Peter Selinger 2001-2019
</metadata>
<g transform="translate(0.000000,500.000000) scale(0.100000,-0.100000)"
fill="#000000" stroke="none">
<path d="M2184 3010 c-12 -4 -31 -21 -43 -36 -70 -89 41 -306 285 -553 49 -49
51 -56 29 -97 -27 -52 -12 -127 27 -140 32 -10 48 14 48 73 0 49 2 54 18 48
70 -31 133 0 135 67 1 22 -6 45 -16 56 -17 18 -16 21 19 63 20 24 64 73 99
109 34 36 104 110 154 165 l93 100 -38 33 c-20 17 -43 32 -49 32 -13 0 -154
-144 -237 -241 -34 -40 -48 -65 -48 -86 0 -31 -46 -102 -66 -103 -15 0 -91 82
-133 143 -34 50 -69 121 -121 249 -48 118 -86 146 -156 118z m51 -10 c-3 -5
-12 -10 -18 -10 -7 -1 -23 -10 -37 -21 l-25 -21 30 -24 c17 -13 27 -24 23 -24
-3 0 -13 -3 -22 -6 -10 -4 -16 -1 -16 9 0 9 -5 19 -11 23 -8 4 -9 -4 -4 -27 4
-19 12 -36 17 -38 6 -2 6 -6 -1 -11 -9 -5 -5 -23 13 -64 22 -50 28 -56 44 -47
19 10 32 6 32 -11 0 -5 -4 -6 -10 -3 -5 3 -10 1 -10 -5 0 -6 -5 -8 -12 -4 -13
8 -8 -1 35 -64 16 -24 31 -41 33 -39 6 6 -36 79 -51 89 -6 5 -4 8 6 8 9 0 27
-22 43 -51 29 -56 31 -63 16 -54 -26 16 -5 -15 38 -58 45 -44 64 -49 73 -18 4
10 7 10 18 -3 11 -13 11 -16 0 -16 -8 0 -21 -5 -29 -10 -12 -8 -4 -20 44 -68
38 -40 64 -58 75 -55 13 3 18 -1 17 -19 -1 -18 5 -24 29 -26 l30 -4 -22 22
c-28 26 -28 29 -3 27 11 -1 20 -4 20 -8 0 -4 9 -9 19 -12 15 -3 20 2 25 25 6
31 26 30 26 -1 0 -35 -39 -71 -77 -71 -31 0 -46 11 -137 103 -203 204 -306
356 -321 473 -6 42 -3 53 15 77 22 28 51 45 78 46 7 1 10 -3 7 -9z"/>
</g>
</svg>
