<svg id="enk7XtjELeG1" xmlns="http://www.w3.org/2000/svg" xmlns:xlink="http://www.w3.org/1999/xlink" viewBox="0 0 500 500" shape-rendering="geometricPrecision" text-rendering="geometricPrecision"><g transform="matrix(.1 0 0-.1 0 500)"><path d="M2184,3010c-12-4-31-21-43-36-70-89,41-306,285-553c49-49,51-56,29-97-27-52-12-127,27-140c32-10,48,14,48,73c0,49,2,54,18,48c70-31,133,0,135,67c1,22-6,45-16,56-17,18-16,21,19,63c20,24,64,73,99,109c34,36,104,110,154,165l93,100-38,33c-20,17-43,32-49,32-13,0-154-144-237-241-34-40-48-65-48-86c0-31-46-102-66-103-15,0-91,82-133,143-34,50-69,121-121,249-48,118-86,146-156,118Zm51-10c-3-5-12-10-18-10-7-1-23-10-37-21l-25-21l30-24c17-13,27-24,23-24-3,0-13-3-22-6-10-4-16-1-16,9c0,9-5,19-11,23-8,4-9-4-4-27c4-19,12-36,17-38c6-2,6-6-1-11-9-5-5-23,13-64c22-50,28-56,44-47c19,10,32,6,32-11c0-5-4-6-10-3-5,3-10,1-10-5s-5-8-12-4c-13,8-8-1,35-64c16-24,31-41,33-39c6,6-36,79-51,89-6,5-4,8,6,8c9,0,27-22,43-51c29-56,31-63,16-54-26,16-5-15,38-58c45-44,64-49,73-18c4,10,7,10,18-3s11-16,0-16c-8,0-21-5-29-10-12-8-4-20,44-68c38-40,64-58,75-55c13,3,18-1,17-19s5-24,29-26l30-4-22,22c-28,26-28,29-3,27c11-1,20-4,20-8s9-9,19-12c15-3,20,2,25,25c6,31,26,30,26-1c0-35-39-71-77-71-31,0-46,11-137,103-203,204-306,356-321,473-6,42-3,53,15,77c22,28,51,45,78,46c7,1,10-3,7-9Z" fill="#d9701e"/></g></svg>